STARTFONT 2.1
FONT -DEC-Terminal-Bold-R-Normal--28-200-100-100-C-160-ISO8859-1
SIZE 20 100 100
FONTBOUNDINGBOX 17 29 0 -5

STARTPROPERTIES 24
FOUNDRY "DEC"
FAMILY_NAME "Terminal"
WEIGHT_NAME "Bold"
SLANT "R"
SETWIDTH_NAME "Normal"
ADD_STYLE_NAME ""
PIXEL_SIZE 28
POINT_SIZE 200
RESOLUTION_X 100
RESOLUTION_Y 100
SPACING "C"
AVERAGE_WIDTH 160
CHARSET_REGISTRY "ISO8859"
CHARSET_ENCODING "1"
CAP_HEIGHT 18
X_HEIGHT 13
COPYRIGHT "Copyright (c) 1991 Digital Equipment Corporation. All Rights Reserved."
_DEC_PRODUCTINFO "DECterm Fonts V2.2, 11-Nov-1991"
FULL_NAME "Terminal Bold"
WEIGHT 10
QUAD_WIDTH 16
DEFAULT_CHAR 159
FONT_DESCENT 6
FONT_ASCENT 24
ENDPROPERTIES

CHARS 195

STARTCHAR space
ENCODING 32
SWIDTH 570 0
DWIDTH 16 0
BBX 1 1 0 0
BITMAP
00
ENDCHAR

STARTCHAR exclam
ENCODING 33
SWIDTH 570 0
DWIDTH 16 0
BBX 3 19 6 -1
BITMAP
E0
E0
E0
E0
E0
E0
E0
E0
E0
E0
E0
E0
E0
00
00
40
E0
E0
40
ENDCHAR

STARTCHAR quotedbl
ENCODING 34
SWIDTH 570 0
DWIDTH 16 0
BBX 9 7 4 13
BITMAP
E380
E380
E380
E380
E380
E380
E380
ENDCHAR

STARTCHAR numbersign
ENCODING 35
SWIDTH 570 0
DWIDTH 16 0
BBX 15 18 1 0
BITMAP
1C70
1C70
1C70
1C70
FFFE
FFFE
FFFE
1C70
1C70
1C70
1C70
FFFE
FFFE
FFFE
1C70
1C70
1C70
1C70
ENDCHAR

STARTCHAR dollar
ENCODING 36
SWIDTH 570 0
DWIDTH 16 0
BBX 13 21 2 -2
BITMAP
0700
0700
0700
0F80
3FE0
78F0
F070
F800
FF80
FFE0
7FF0
1FF8
00F8
E078
F0F8
7FF0
1FC0
0700
0700
0700
0700
ENDCHAR

STARTCHAR percent
ENCODING 37
SWIDTH 570 0
DWIDTH 16 0
BBX 16 20 0 -1
BITMAP
0007
7E0E
E71C
E71C
E738
E738
7E70
00E0
00E0
01C0
0380
0380
0700
0F7E
0EE7
1CE7
38E7
38E7
707E
F000
ENDCHAR

STARTCHAR ampersand
ENCODING 38
SWIDTH 570 0
DWIDTH 16 0
BBX 15 18 1 0
BITMAP
0F00
3FC0
3FC0
79E0
70E0
78E0
39C0
3FC0
1F9E
3F1C
7F9C
7BF8
F1F8
F0F0
F8F0
FFF8
7FBC
3E1E
ENDCHAR

STARTCHAR quoteright
ENCODING 39
SWIDTH 570 0
DWIDTH 16 0
BBX 5 6 5 14
BITMAP
38
38
38
38
70
E0
ENDCHAR

STARTCHAR parenleft
ENCODING 40
SWIDTH 570 0
DWIDTH 16 0
BBX 8 20 6 -1
BITMAP
07
1E
3C
38
70
70
E0
E0
E0
E0
E0
E0
E0
E0
70
70
38
3C
1E
07
ENDCHAR

STARTCHAR parenright
ENCODING 41
SWIDTH 570 0
DWIDTH 16 0
BBX 8 20 3 -1
BITMAP
E0
78
3C
1C
0E
0E
07
07
07
07
07
07
07
07
0E
0E
1C
3C
78
E0
ENDCHAR

STARTCHAR asterisk
ENCODING 42
SWIDTH 570 0
DWIDTH 16 0
BBX 13 12 2 6
BITMAP
38E0
38E0
1DC0
0D80
6FB0
FFF8
7FF0
0F80
0D80
1DC0
38E0
38E0
ENDCHAR

STARTCHAR plus
ENCODING 43
SWIDTH 570 0
DWIDTH 16 0
BBX 13 15 2 3
BITMAP
0700
0700
0700
0700
0700
0700
FFF8
FFF8
FFF8
0700
0700
0700
0700
0700
0700
ENDCHAR

STARTCHAR comma
ENCODING 44
SWIDTH 570 0
DWIDTH 16 0
BBX 6 6 4 -3
BITMAP
1C
1C
1C
38
70
C0
ENDCHAR

STARTCHAR minus
ENCODING 45
SWIDTH 570 0
DWIDTH 16 0
BBX 13 3 2 9
BITMAP
FFF8
FFF8
FFF8
ENDCHAR

STARTCHAR period
ENCODING 46
SWIDTH 570 0
DWIDTH 16 0
BBX 4 4 6 0
BITMAP
60
F0
F0
60
ENDCHAR

STARTCHAR slash
ENCODING 47
SWIDTH 570 0
DWIDTH 16 0
BBX 12 20 2 -1
BITMAP
0070
0070
00E0
00E0
01C0
01C0
0380
0380
0700
0700
0E00
0E00
1C00
1C00
3800
3800
7000
7000
E000
E000
ENDCHAR

STARTCHAR zero
ENCODING 48
SWIDTH 570 0
DWIDTH 16 0
BBX 12 18 3 0
BITMAP
0F00
1F80
3FC0
79E0
70E0
F0F0
F0F0
F0F0
F0F0
F0F0
F0F0
F0F0
F0F0
70E0
79E0
3FC0
1F80
0F00
ENDCHAR

STARTCHAR one
ENCODING 49
SWIDTH 570 0
DWIDTH 16 0
BBX 11 18 2 0
BITMAP
0F00
1F00
3F00
7F00
EF00
CF00
0F00
0F00
0F00
0F00
0F00
0F00
0F00
0F00
0F00
7FE0
7FE0
7FE0
ENDCHAR

STARTCHAR two
ENCODING 50
SWIDTH 570 0
DWIDTH 16 0
BBX 12 18 2 0
BITMAP
3F80
7FE0
FFE0
F1F0
E0F0
60F0
01E0
03E0
07C0
0F80
1F00
3E00
7C00
7810
F030
FFF0
FFF0
FFF0
ENDCHAR

STARTCHAR three
ENCODING 51
SWIDTH 570 0
DWIDTH 16 0
BBX 13 18 2 0
BITMAP
1FC0
7FF0
7FF8
70F8
6078
0070
00F0
1FE0
1FC0
1FF0
00F0
0078
6078
E078
F0F8
FFF0
7FE0
1F80
ENDCHAR

STARTCHAR four
ENCODING 52
SWIDTH 570 0
DWIDTH 16 0
BBX 14 18 1 0
BITMAP
0070
00F0
01F0
03F0
07F0
0EF0
1CF0
18F0
38F0
70F0
E0F0
FFFC
FFFC
FFFC
00F0
00F0
00F0
00F0
ENDCHAR

STARTCHAR five
ENCODING 53
SWIDTH 570 0
DWIDTH 16 0
BBX 12 18 2 0
BITMAP
FFE0
FFE0
FFE0
F000
F000
F000
F7C0
FFE0
FFE0
F9F0
00F0
00F0
00F0
C0F0
E1F0
FFE0
FFE0
3F80
ENDCHAR

STARTCHAR six
ENCODING 54
SWIDTH 570 0
DWIDTH 16 0
BBX 13 18 2 0
BITMAP
0FC0
3FF0
7FF0
7870
F030
F000
F780
FFE0
FFF0
F8F0
F078
F078
F078
F078
78F0
7FF0
3FE0
0F80
ENDCHAR

STARTCHAR seven
ENCODING 55
SWIDTH 570 0
DWIDTH 16 0
BBX 12 18 2 0
BITMAP
FFF0
FFF0
FFF0
0070
00F0
01F0
03E0
07C0
0F80
1F00
1E00
3C00
3C00
7800
7800
7800
7800
7800
ENDCHAR

STARTCHAR eight
ENCODING 56
SWIDTH 570 0
DWIDTH 16 0
BBX 13 18 2 0
BITMAP
0F80
3FE0
78F0
78F0
78F0
38E0
3FE0
0F80
3FE0
7FF0
F8F8
F078
F078
F078
78F0
7FF0
3FE0
0F80
ENDCHAR

STARTCHAR nine
ENCODING 57
SWIDTH 570 0
DWIDTH 16 0
BBX 13 18 2 0
BITMAP
0FC0
3FF0
7FF0
78F8
F078
F078
F078
F078
78F8
7FF8
3FF8
0F78
0078
6078
70F0
7FF0
3FE0
1F80
ENDCHAR

STARTCHAR colon
ENCODING 58
SWIDTH 570 0
DWIDTH 16 0
BBX 4 12 6 0
BITMAP
60
F0
F0
60
00
00
00
00
60
F0
F0
60
ENDCHAR

STARTCHAR semicolon
ENCODING 59
SWIDTH 570 0
DWIDTH 16 0
BBX 7 15 3 -3
BITMAP
0C
1E
1E
0C
00
00
00
00
00
1C
1C
1C
38
70
C0
ENDCHAR

STARTCHAR less
ENCODING 60
SWIDTH 570 0
DWIDTH 16 0
BBX 11 16 4 1
BITMAP
01E0
03C0
0780
0F00
1E00
3C00
7800
F000
F000
7800
3C00
1E00
0F00
0780
03C0
01E0
ENDCHAR

STARTCHAR equal
ENCODING 61
SWIDTH 570 0
DWIDTH 16 0
BBX 14 9 1 4
BITMAP
FFFC
FFFC
FFFC
0000
0000
0000
FFFC
FFFC
FFFC
ENDCHAR

STARTCHAR greater
ENCODING 62
SWIDTH 570 0
DWIDTH 16 0
BBX 11 16 3 1
BITMAP
F000
7800
3C00
1E00
0F00
0780
03C0
01E0
01E0
03C0
0780
0F00
1E00
3C00
7800
F000
ENDCHAR

STARTCHAR question
ENCODING 63
SWIDTH 570 0
DWIDTH 16 0
BBX 11 19 3 -1
BITMAP
3F00
7FC0
E3E0
E1E0
C1E0
01E0
03C0
0780
0F00
0E00
1C00
1C00
1C00
0000
0000
0000
0C00
1E00
0C00
ENDCHAR

STARTCHAR at
ENCODING 64
SWIDTH 570 0
DWIDTH 16 0
BBX 13 18 2 0
BITMAP
1FE0
7FF0
7070
E038
E038
E1F8
E7F8
EE38
EE38
EE38
E7F8
E3B8
E000
E000
7018
7FF8
3FF0
0FE0
ENDCHAR

STARTCHAR A
ENCODING 65
SWIDTH 570 0
DWIDTH 16 0
BBX 16 18 0 0
BITMAP
0180
03C0
03C0
07E0
07E0
0E70
0E70
1E78
1C38
3C3C
3FFC
3FFC
7FFE
781E
781E
F00F
F00F
F00F
ENDCHAR

STARTCHAR B
ENCODING 66
SWIDTH 570 0
DWIDTH 16 0
BBX 14 18 1 0
BITMAP
FFC0
FFF0
7FF8
7878
7878
7878
78F0
7FE0
7FC0
7FF0
7878
783C
783C
783C
787C
7FF8
FFF0
FFC0
ENDCHAR

STARTCHAR C
ENCODING 67
SWIDTH 570 0
DWIDTH 16 0
BBX 13 18 2 0
BITMAP
0FC0
3FF0
7FF0
7C78
F838
F000
F000
F000
F000
F000
F000
F000
F000
F838
7C78
7FF0
3FE0
0F80
ENDCHAR

STARTCHAR D
ENCODING 68
SWIDTH 570 0
DWIDTH 16 0
BBX 14 18 1 0
BITMAP
FFC0
FFF0
7FF8
7878
783C
783C
783C
783C
783C
783C
783C
783C
783C
783C
7878
7FF8
FFF0
FFC0
ENDCHAR

STARTCHAR E
ENCODING 69
SWIDTH 570 0
DWIDTH 16 0
BBX 13 18 2 0
BITMAP
FFF8
FFF8
7FF8
7818
7808
7800
7800
7FE0
7FE0
7FE0
7800
7800
7800
7808
7818
7FF8
FFF8
FFF8
ENDCHAR

STARTCHAR F
ENCODING 70
SWIDTH 570 0
DWIDTH 16 0
BBX 12 18 3 0
BITMAP
FFF0
FFF0
7FF0
7830
7810
7800
7800
7800
7FC0
7FC0
7FC0
7800
7800
7800
7800
7800
FE00
FE00
ENDCHAR

STARTCHAR G
ENCODING 71
SWIDTH 570 0
DWIDTH 16 0
BBX 13 18 2 0
BITMAP
0FC0
3FF0
7FF0
7878
F078
F000
F000
F000
F000
F1F8
F1F8
F1F8
F038
F838
7C78
7FF8
3FF8
0FB8
ENDCHAR

STARTCHAR H
ENCODING 72
SWIDTH 570 0
DWIDTH 16 0
BBX 15 18 1 0
BITMAP
FC7E
FC7E
783C
783C
783C
783C
783C
7FFC
7FFC
7FFC
783C
783C
783C
783C
783C
783C
FC7E
FC7E
ENDCHAR

STARTCHAR I
ENCODING 73
SWIDTH 570 0
DWIDTH 16 0
BBX 10 18 3 0
BITMAP
FFC0
FFC0
1E00
1E00
1E00
1E00
1E00
1E00
1E00
1E00
1E00
1E00
1E00
1E00
1E00
1E00
FFC0
FFC0
ENDCHAR

STARTCHAR J
ENCODING 74
SWIDTH 570 0
DWIDTH 16 0
BBX 12 18 2 0
BITMAP
1FF0
1FF0
00F0
00F0
00F0
00F0
00F0
00F0
00F0
00F0
00F0
00F0
E0F0
E0F0
F1E0
7FE0
7FC0
1F00
ENDCHAR

STARTCHAR K
ENCODING 75
SWIDTH 570 0
DWIDTH 16 0
BBX 15 18 1 0
BITMAP
FC3C
F87C
78F0
79E0
7BC0
7B80
7F00
7F00
7F00
7F80
7F80
7BC0
79E0
79E0
78F0
7878
FCFE
FCFE
ENDCHAR

STARTCHAR L
ENCODING 76
SWIDTH 570 0
DWIDTH 16 0
BBX 12 18 3 0
BITMAP
FC00
FC00
7800
7800
7800
7800
7800
7800
7800
7800
7800
7800
7800
7810
7830
7FF0
FFF0
FFF0
ENDCHAR

STARTCHAR M
ENCODING 77
SWIDTH 570 0
DWIDTH 16 0
BBX 16 18 0 0
BITMAP
F81F
F81F
7C3E
7C3E
7C3E
7E7E
7E7E
7E7E
7FFE
7BDE
7BDE
7BDE
799E
799E
781E
781E
F81F
F81F
ENDCHAR

STARTCHAR N
ENCODING 78
SWIDTH 570 0
DWIDTH 16 0
BBX 15 18 1 0
BITMAP
F87E
F87E
7C3C
7C3C
7E3C
7E3C
7F3C
7F3C
7BBC
7BBC
79FC
79FC
78FC
78FC
787C
787C
FC3C
FC3C
ENDCHAR

STARTCHAR O
ENCODING 79
SWIDTH 570 0
DWIDTH 16 0
BBX 13 18 2 0
BITMAP
0F80
3FE0
7FF0
78F0
F078
F078
F078
F078
F078
F078
F078
F078
F078
F078
78F0
7FF0
3FE0
0F80
ENDCHAR

STARTCHAR P
ENCODING 80
SWIDTH 570 0
DWIDTH 16 0
BBX 14 18 2 0
BITMAP
FFE0
FFF8
7FF8
787C
783C
783C
783C
783C
787C
7FF8
7FF0
7FC0
7800
7800
7800
7800
FC00
FC00
ENDCHAR

STARTCHAR Q
ENCODING 81
SWIDTH 570 0
DWIDTH 16 0
BBX 14 20 2 -2
BITMAP
0F80
3FE0
7FF0
78F0
F078
F078
F078
F078
F078
F078
F078
F078
F078
F078
79F0
7EF0
3FE0
0FF0
0038
001C
ENDCHAR

STARTCHAR R
ENCODING 82
SWIDTH 570 0
DWIDTH 16 0
BBX 15 18 1 0
BITMAP
FFC0
FFF0
7FF8
78F8
7878
7878
7878
78F0
7FE0
7FC0
7FC0
79E0
78F0
78F0
7878
7878
FC3C
FC3E
ENDCHAR

STARTCHAR S
ENCODING 83
SWIDTH 570 0
DWIDTH 16 0
BBX 13 18 2 0
BITMAP
1FC0
7FF0
7FF0
F878
F038
F800
FE00
7F80
3FE0
0FF0
03F8
00F8
0078
E078
F0F8
FFF0
7FE0
1F80
ENDCHAR

STARTCHAR T
ENCODING 84
SWIDTH 570 0
DWIDTH 16 0
BBX 14 18 2 0
BITMAP
FFFC
FFFC
FFFC
C78C
8784
0780
0780
0780
0780
0780
0780
0780
0780
0780
0780
0780
1FE0
1FE0
ENDCHAR

STARTCHAR U
ENCODING 85
SWIDTH 570 0
DWIDTH 16 0
BBX 15 18 1 0
BITMAP
F83E
F83E
783C
783C
783C
783C
783C
783C
783C
783C
783C
783C
783C
783C
3C78
3FF8
1FF0
07C0
ENDCHAR

STARTCHAR V
ENCODING 86
SWIDTH 570 0
DWIDTH 16 0
BBX 15 18 1 0
BITMAP
F01E
F01E
701C
783C
783C
783C
3838
3838
3C78
1C70
1C70
1EF0
1EF0
0EE0
0FE0
07C0
07C0
0380
ENDCHAR

STARTCHAR W
ENCODING 87
SWIDTH 570 0
DWIDTH 16 0
BBX 16 18 0 0
BITMAP
F00F
F00F
700E
700E
700E
718E
718E
718E
73CE
73CE
73CE
77EE
7E7E
7E7E
3C3C
381C
381C
300C
ENDCHAR

STARTCHAR X
ENCODING 88
SWIDTH 570 0
DWIDTH 16 0
BBX 14 18 1 0
BITMAP
F03C
7878
7878
3CF0
3CE0
1FE0
0FC0
0FC0
0780
0FC0
1FE0
1CE0
3CF0
3870
7878
7878
F03C
F03C
ENDCHAR

STARTCHAR Y
ENCODING 89
SWIDTH 570 0
DWIDTH 16 0
BBX 16 18 0 0
BITMAP
F00F
F81F
781E
3C3C
1C38
1E78
0FF0
07E0
07E0
03C0
03C0
03C0
03C0
03C0
03C0
03C0
0FF0
0FF0
ENDCHAR

STARTCHAR Z
ENCODING 90
SWIDTH 570 0
DWIDTH 16 0
BBX 12 18 2 0
BITMAP
FFF0
FFF0
FFF0
C1E0
83E0
03C0
0780
0F80
0F00
1E00
3E00
3C00
7800
7810
F030
FFF0
FFF0
FFF0
ENDCHAR

STARTCHAR bracketleft
ENCODING 91
SWIDTH 570 0
DWIDTH 16 0
BBX 7 20 7 -1
BITMAP
FE
FE
F0
F0
F0
F0
F0
F0
F0
F0
F0
F0
F0
F0
F0
F0
F0
F0
FE
FE
ENDCHAR

STARTCHAR backslash
ENCODING 92
SWIDTH 570 0
DWIDTH 16 0
BBX 11 20 3 -1
BITMAP
E000
E000
7000
7000
3800
3800
1C00
1C00
1C00
0E00
0E00
0700
0700
0380
0380
01C0
01C0
00E0
00E0
00E0
ENDCHAR

STARTCHAR bracketright
ENCODING 93
SWIDTH 570 0
DWIDTH 16 0
BBX 7 20 3 -1
BITMAP
FE
FE
1E
1E
1E
1E
1E
1E
1E
1E
1E
1E
1E
1E
1E
1E
1E
1E
FE
FE
ENDCHAR

STARTCHAR asciicircum
ENCODING 94
SWIDTH 570 0
DWIDTH 16 0
BBX 12 5 2 8
BITMAP
0F00
1F80
3FC0
79E0
F0F0
ENDCHAR

STARTCHAR underscore
ENCODING 95
SWIDTH 570 0
DWIDTH 16 0
BBX 14 3 1 0
BITMAP
FFFC
FFFC
FFFC
ENDCHAR

STARTCHAR quoteleft
ENCODING 96
SWIDTH 570 0
DWIDTH 16 0
BBX 5 6 8 14
BITMAP
E0
E0
E0
E0
70
38
ENDCHAR

STARTCHAR a
ENCODING 97
SWIDTH 570 0
DWIDTH 16 0
BBX 14 13 2 0
BITMAP
0FC0
3FF0
7FF0
70F8
0078
1FF8
7FF8
FFF8
F078
F0F8
FFF8
7FBC
3E3C
ENDCHAR

STARTCHAR b
ENCODING 98
SWIDTH 570 0
DWIDTH 16 0
BBX 16 19 0 0
BITMAP
FC00
FC00
3C00
3C00
3C00
3C00
3DF0
3FFC
3FFE
3E3E
3C1F
3C1F
3C1F
3C1F
3C1E
3E3E
3FFC
3FF8
3DE0
ENDCHAR

STARTCHAR c
ENCODING 99
SWIDTH 570 0
DWIDTH 16 0
BBX 13 13 2 0
BITMAP
0FE0
3FF8
7FF8
7C38
F818
F800
F800
F800
FC00
7E38
7FF8
3FF0
0FC0
ENDCHAR

STARTCHAR d
ENCODING 100
SWIDTH 570 0
DWIDTH 16 0
BBX 15 19 1 0
BITMAP
00FC
00FC
003C
003C
003C
003C
07BC
1FFC
3FFC
7C7C
783C
F83C
F83C
F83C
783C
7C7C
3FFC
1FFC
07BE
ENDCHAR

STARTCHAR e
ENCODING 101
SWIDTH 570 0
DWIDTH 16 0
BBX 13 13 2 0
BITMAP
0FC0
3FF0
7FF0
78F8
F078
FFF8
FFF0
F000
F800
7C38
7FF8
3FF0
0FC0
ENDCHAR

STARTCHAR f
ENCODING 102
SWIDTH 570 0
DWIDTH 16 0
BBX 14 19 2 0
BITMAP
03F8
0FFC
1F3C
1E18
1E00
1E00
FFF0
FFF0
1E00
1E00
1E00
1E00
1E00
1E00
1E00
1E00
1E00
FFE0
FFE0
ENDCHAR

STARTCHAR g
ENCODING 103
SWIDTH 570 0
DWIDTH 16 0
BBX 15 17 1 -4
BITMAP
0FEE
3FFE
3C78
783C
783C
783C
3C78
3FF8
1FE0
3800
3FF8
3FFC
783E
F01E
F83E
7FFC
1FF0
ENDCHAR

STARTCHAR h
ENCODING 104
SWIDTH 570 0
DWIDTH 16 0
BBX 16 19 0 0
BITMAP
FC00
FC00
3C00
3C00
3C00
3C00
3CF8
3DFC
3FFE
3E3E
3C1E
3C1E
3C1E
3C1E
3C1E
3C1E
3C1E
7C1F
7C1F
ENDCHAR

STARTCHAR i
ENCODING 105
SWIDTH 570 0
DWIDTH 16 0
BBX 12 18 3 0
BITMAP
0F00
0F00
0F00
0000
0000
0F00
FF00
FF00
0F00
0F00
0F00
0F00
0F00
0F00
0F00
0F00
FFF0
FFF0
ENDCHAR

STARTCHAR j
ENCODING 106
SWIDTH 570 0
DWIDTH 16 0
BBX 11 22 2 -4
BITMAP
01E0
01E0
01E0
0000
0000
01E0
1FE0
1FE0
01E0
01E0
01E0
01E0
01E0
01E0
01E0
01E0
61E0
E1E0
F1E0
FFC0
7FC0
3F00
ENDCHAR

STARTCHAR k
ENCODING 107
SWIDTH 570 0
DWIDTH 16 0
BBX 15 19 1 0
BITMAP
FC00
FC00
3C00
3C00
3C00
3C00
3C3C
3C78
3CF0
3DE0
3DC0
3F80
3F80
3FC0
3FE0
3DF0
3CF8
7C7C
7C3E
ENDCHAR

STARTCHAR l
ENCODING 108
SWIDTH 570 0
DWIDTH 16 0
BBX 12 19 2 0
BITMAP
FF00
FF00
0F00
0F00
0F00
0F00
0F00
0F00
0F00
0F00
0F00
0F00
0F00
0F00
0F00
0F00
0F00
FFF0
FFF0
ENDCHAR

STARTCHAR m
ENCODING 109
SWIDTH 570 0
DWIDTH 16 0
BBX 16 13 0 0
BITMAP
673C
FFFE
7FFE
79CE
79CE
79CE
79CE
79CE
79CE
79CE
79CE
79CE
F9CF
ENDCHAR

STARTCHAR n
ENCODING 110
SWIDTH 570 0
DWIDTH 16 0
BBX 15 13 1 0
BITMAP
79F0
FFF8
FFFC
7C7C
783C
783C
783C
783C
783C
783C
783C
F83E
F83E
ENDCHAR

STARTCHAR o
ENCODING 111
SWIDTH 570 0
DWIDTH 16 0
BBX 15 13 1 0
BITMAP
07C0
1FF0
3FF8
7C7C
783C
F83E
F83E
F83E
783C
7C7C
3FF8
1FF0
07C0
ENDCHAR

STARTCHAR p
ENCODING 112
SWIDTH 570 0
DWIDTH 16 0
BBX 15 18 1 -5
BITMAP
FBC0
FFF0
7FF8
7C7C
783C
783E
783E
783E
783C
7C7C
7FF8
7FF0
7BC0
7800
7800
7800
FC00
FC00
ENDCHAR

STARTCHAR q
ENCODING 113
SWIDTH 570 0
DWIDTH 16 0
BBX 15 18 1 -5
BITMAP
07BC
1FFC
3FFC
7C7C
783C
F83C
F83C
F83C
783C
7C7C
3FFC
1FFC
07BC
003C
003C
003C
003E
003E
ENDCHAR

STARTCHAR r
ENCODING 114
SWIDTH 570 0
DWIDTH 16 0
BBX 13 13 2 0
BITMAP
3CF0
FDF8
FFF8
3F30
3E00
3C00
3C00
3C00
3C00
3C00
3C00
FF80
FF80
ENDCHAR

STARTCHAR s
ENCODING 115
SWIDTH 570 0
DWIDTH 16 0
BBX 13 13 2 0
BITMAP
1FE0
7FF0
F9F0
F000
FFC0
FFF0
7FF8
3FF8
0078
F0F8
FFF8
7FF0
1FC0
ENDCHAR

STARTCHAR t
ENCODING 116
SWIDTH 570 0
DWIDTH 16 0
BBX 14 17 1 0
BITMAP
0F00
0F00
0F00
0F00
FFFC
FFFC
0F00
0F00
0F00
0F00
0F00
0F00
0F00
0F8C
07FC
07F8
03E0
ENDCHAR

STARTCHAR u
ENCODING 117
SWIDTH 570 0
DWIDTH 16 0
BBX 15 13 1 0
BITMAP
783C
F87C
F87C
783C
783C
783C
783C
783C
783C
7C7C
3FFC
3FBE
1F3E
ENDCHAR

STARTCHAR v
ENCODING 118
SWIDTH 570 0
DWIDTH 16 0
BBX 16 13 0 0
BITMAP
F81F
F81F
781E
3C3C
3C3C
1C38
1E78
1E70
0FF0
0FE0
07C0
0380
0380
ENDCHAR

STARTCHAR w
ENCODING 119
SWIDTH 570 0
DWIDTH 16 0
BBX 16 13 0 0
BITMAP
F00F
F00F
781E
781E
799E
3DBC
3DBC
3DBC
1FF8
1FF8
0E70
0E70
0C30
ENDCHAR

STARTCHAR x
ENCODING 120
SWIDTH 570 0
DWIDTH 16 0
BBX 14 13 1 0
BITMAP
F03C
7878
3CF0
1EE0
0FC0
0F80
0780
07C0
0FC0
1FE0
3CF0
7878
F07C
ENDCHAR

STARTCHAR y
ENCODING 121
SWIDTH 570 0
DWIDTH 16 0
BBX 15 18 1 -5
BITMAP
F83E
783E
7C3C
3C3C
3C38
1E38
1E78
1E70
0F70
0FE0
07E0
07C0
03C0
0380
C380
EF00
FE00
7C00
ENDCHAR

STARTCHAR z
ENCODING 122
SWIDTH 570 0
DWIDTH 16 0
BBX 11 13 3 0
BITMAP
FFE0
FFE0
C1E0
C3E0
07C0
0F80
1F00
3E00
7C00
F860
F060
FFE0
FFE0
ENDCHAR

STARTCHAR braceleft
ENCODING 123
SWIDTH 570 0
DWIDTH 16 0
BBX 9 20 5 -1
BITMAP
0780
1F80
3E00
3C00
3C00
3C00
1E00
0F00
3C00
F000
3C00
0F00
1C00
3C00
3C00
3C00
3C00
1E00
1F80
0780
ENDCHAR

STARTCHAR bar
ENCODING 124
SWIDTH 570 0
DWIDTH 16 0
BBX 3 20 7 -1
BITMAP
E0
E0
E0
E0
E0
E0
E0
E0
E0
E0
E0
E0
E0
E0
E0
E0
E0
E0
E0
E0
ENDCHAR

STARTCHAR braceright
ENCODING 125
SWIDTH 570 0
DWIDTH 16 0
BBX 9 20 3 -1
BITMAP
F000
FC00
3E00
1E00
1E00
1E00
1C00
7800
1E00
0780
1E00
7800
1C00
1E00
1E00
1E00
1E00
3C00
FC00
F000
ENDCHAR

STARTCHAR asciitilde
ENCODING 126
SWIDTH 570 0
DWIDTH 16 0
BBX 12 6 2 7
BITMAP
3830
7E30
FF70
EFF0
C3E0
C1C0
ENDCHAR

STARTCHAR OE
ENCODING 128
SWIDTH 570 0
DWIDTH 16 0
BBX 16 18 0 0
BITMAP
0EFF
3FFF
7FFF
79E1
F0E0
F0E0
F0E0
F0FE
F0FE
F0FE
F0E0
F0E0
F0E0
F0E0
79E1
7FFF
3FFF
0EFF
ENDCHAR

STARTCHAR oe
ENCODING 129
SWIDTH 570 0
DWIDTH 16 0
BBX 15 13 1 0
BITMAP
0E78
3FFC
7FFE
7BCE
F1CE
F1FE
F1FE
F1C0
F1C0
7BE2
7FFE
3FFC
0E78
ENDCHAR

STARTCHAR Ydieresis
ENCODING 130
SWIDTH 570 0
DWIDTH 16 0
BBX 16 24 0 0
BITMAP
0C30
1E78
1E78
0C30
0000
0000
F81F
F81F
781E
3C3C
1C38
1E78
0E70
07E0
07E0
03C0
03C0
03C0
03C0
03C0
03C0
03C0
0FF0
0FF0
ENDCHAR

STARTCHAR Error
ENCODING 159
SWIDTH 570 0
DWIDTH 16 0
BBX 15 28 1 -4
BITMAP
0FF0
3FFC
7FFC
7EFE
FC7E
FC7E
FC7E
FC00
FC00
7E00
7E00
3F00
3F80
1FC0
0FE0
07E0
07F0
03F0
03F0
03F0
0000
0000
0000
03F0
07F8
07F8
07F8
03F0
ENDCHAR

STARTCHAR space
ENCODING 160
SWIDTH 570 0
DWIDTH 16 0
BBX 1 1 0 0
BITMAP
00
ENDCHAR

STARTCHAR exclamdown
ENCODING 161
SWIDTH 570 0
DWIDTH 16 0
BBX 3 19 7 -1
BITMAP
40
E0
E0
40
00
00
E0
E0
E0
E0
E0
E0
E0
E0
E0
E0
E0
E0
E0
ENDCHAR

STARTCHAR cent
ENCODING 162
SWIDTH 570 0
DWIDTH 16 0
BBX 13 19 2 -1
BITMAP
0380
0380
0380
0FE0
3FF8
7FF8
7C38
F818
F800
F800
F800
FC00
7E38
7FF8
3FF0
0FE0
0380
0380
0380
ENDCHAR

STARTCHAR sterling
ENCODING 163
SWIDTH 570 0
DWIDTH 16 0
BBX 14 18 1 0
BITMAP
07E0
0FF0
1F38
1E38
1E00
1E00
1E00
1E00
7FE0
7FE0
1E00
1E00
1E00
1E04
1F0C
3FFC
7FFC
F3F8
ENDCHAR

STARTCHAR currency
ENCODING 164
SWIDTH 570 0
DWIDTH 16 0
BBX 12 14 2 3
BITMAP
C030
C030
7FE0
3FC0
79E0
70E0
70E0
70E0
70E0
79E0
3FC0
7FE0
C030
C030
ENDCHAR

STARTCHAR yen
ENCODING 165
SWIDTH 570 0
DWIDTH 16 0
BBX 16 18 0 0
BITMAP
F81F
F81F
781E
3C3C
1C38
1E78
0E70
07E0
3FFC
3FFC
03C0
03C0
3FFC
3FFC
03C0
03C0
0FF0
0FF0
ENDCHAR

STARTCHAR brokenbar
ENCODING 166
SWIDTH 570 0
DWIDTH 16 0
BBX 3 20 7 -1
BITMAP
E0
E0
E0
E0
E0
E0
E0
E0
00
00
00
00
E0
E0
E0
E0
E0
E0
E0
E0
ENDCHAR

STARTCHAR section
ENCODING 167
SWIDTH 570 0
DWIDTH 16 0
BBX 13 22 2 -2
BITMAP
1F80
7FE0
FFF0
F070
E030
F000
7F00
3FC0
7FE0
F0F0
E070
E070
F0F0
7FE0
3FF0
0FF8
0078
6078
F0F8
FFF0
7FE0
1F80
ENDCHAR

STARTCHAR dieresis
ENCODING 168
SWIDTH 570 0
DWIDTH 16 0
BBX 9 4 4 15
BITMAP
6300
F780
F780
6300
ENDCHAR

STARTCHAR copyright
ENCODING 169
SWIDTH 570 0
DWIDTH 16 0
BBX 14 18 1 0
BITMAP
7FF8
FFFC
E01C
C00C
C7CC
CFCC
DC4C
DC0C
DC0C
DC0C
DC0C
DE4C
CFCC
C7CC
C00C
E01C
FFFC
7FF8
ENDCHAR

STARTCHAR ordfeminine
ENCODING 170
SWIDTH 570 0
DWIDTH 16 0
BBX 11 13 3 9
BITMAP
3F00
7F80
63C0
01C0
7FC0
F1C0
E1C0
FFE0
7EE0
0000
0000
FFE0
FFE0
ENDCHAR

STARTCHAR guillemotleft
ENCODING 171
SWIDTH 570 0
DWIDTH 16 0
BBX 15 11 0 2
BITMAP
079E
0F3C
1E78
3CF0
79E0
F3C0
79E0
3CF0
1E78
0F3C
079E
ENDCHAR

STARTCHAR logicalnot
ENCODING 172
SWIDTH 570 0
DWIDTH 16 0
BBX 10 5 3 8
BITMAP
FFC0
FFC0
FFC0
01C0
01C0
ENDCHAR

STARTCHAR hyphen
ENCODING 173
SWIDTH 570 0
DWIDTH 16 0
BBX 9 3 4 9
BITMAP
FF80
FF80
FF80
ENDCHAR

STARTCHAR registered
ENCODING 174
SWIDTH 570 0
DWIDTH 16 0
BBX 14 18 1 0
BITMAP
7FF8
FFFC
E01C
C00C
DFCC
DFEC
DCEC
DCEC
DCEC
DFCC
DFCC
DDEC
DCFC
DC7C
C00C
E01C
FFFC
7FF8
ENDCHAR

STARTCHAR macron
ENCODING 175
SWIDTH 570 0
DWIDTH 16 0
BBX 9 3 4 15
BITMAP
FF80
FF80
FF80
ENDCHAR

STARTCHAR degree
ENCODING 176
SWIDTH 570 0
DWIDTH 16 0
BBX 8 7 4 13
BITMAP
3C
7E
E7
E7
E7
7E
3C
ENDCHAR

STARTCHAR plusminus
ENCODING 177
SWIDTH 570 0
DWIDTH 16 0
BBX 13 16 2 2
BITMAP
0700
0700
0700
0700
FFF8
FFF8
FFF8
0700
0700
0700
0700
0000
0000
FFF8
FFF8
FFF8
ENDCHAR

STARTCHAR twosuperior
ENCODING 178
SWIDTH 570 0
DWIDTH 16 0
BBX 9 11 3 9
BITMAP
3E00
7F00
E780
0380
0780
1F00
3E00
7800
F080
FF80
FF80
ENDCHAR

STARTCHAR threesuperior
ENCODING 179
SWIDTH 570 0
DWIDTH 16 0
BBX 9 11 3 9
BITMAP
7E00
FF00
C780
0380
1F00
1F00
0380
0380
C780
FF00
7C00
ENDCHAR

STARTCHAR acute
ENCODING 180
SWIDTH 570 0
DWIDTH 16 0
BBX 5 4 7 15
BITMAP
78
70
E0
C0
ENDCHAR

STARTCHAR mu
ENCODING 181
SWIDTH 570 0
DWIDTH 16 0
BBX 16 15 0 -2
BITMAP
0387
0787
070E
0F0E
0E1C
1E1C
1C3C
1C38
3878
3870
78F2
7FFE
6F1C
C000
8000
ENDCHAR

STARTCHAR paragraph
ENCODING 182
SWIDTH 570 0
DWIDTH 16 0
BBX 14 22 1 -2
BITMAP
0FFC
3FFC
7F38
7F38
FF38
FF38
FF38
FF38
FF38
7F38
7F38
1F38
0738
0738
0738
0738
0738
0738
0738
0738
0738
0738
ENDCHAR

STARTCHAR periodcentered
ENCODING 183
SWIDTH 570 0
DWIDTH 16 0
BBX 5 5 6 7
BITMAP
70
F8
F8
F8
70
ENDCHAR

STARTCHAR cedilla
ENCODING 184
SWIDTH 570 0
DWIDTH 16 0
BBX 4 4 7 -3
BITMAP
70
70
60
C0
ENDCHAR

STARTCHAR onesuperior
ENCODING 185
SWIDTH 570 0
DWIDTH 16 0
BBX 9 11 4 9
BITMAP
1C00
3C00
7C00
DC00
9C00
1C00
1C00
1C00
1C00
FF80
FF80
ENDCHAR

STARTCHAR ordmasculine
ENCODING 186
SWIDTH 570 0
DWIDTH 16 0
BBX 10 13 3 9
BITMAP
1E00
7F80
F3C0
E1C0
E1C0
E1C0
F3C0
7F80
1E00
0000
0000
FFC0
FFC0
ENDCHAR

STARTCHAR guillemotright
ENCODING 187
SWIDTH 570 0
DWIDTH 16 0
BBX 15 11 1 2
BITMAP
F3C0
79E0
3CF0
1E78
0F3C
079E
0F3C
1E78
3CF0
79E0
F3C0
ENDCHAR

STARTCHAR onequarter
ENCODING 188
SWIDTH 570 0
DWIDTH 16 0
BBX 16 22 1 -1
BITMAP
3800
7800
F802
B807
380E
381C
3838
FE70
FEE0
01C0
0380
0718
0E38
1C78
38F8
71B8
E3B8
4738
07FC
07FC
0038
0038
ENDCHAR

STARTCHAR onehalf
ENCODING 189
SWIDTH 570 0
DWIDTH 16 0
BBX 16 22 0 -1
BITMAP
1C00
3C00
7C00
5C02
1C07
1C0E
1C1C
7F38
7F70
00E0
01C0
0380
073E
0EFF
1CE7
3867
700F
E01E
403C
0070
00FF
00FF
ENDCHAR

STARTCHAR threequarters
ENCODING 190
SWIDTH 570 0
DWIDTH 16 0
BBX 16 22 1 -1
BITMAP
7E00
FF00
C780
0382
1F07
1F0E
039C
C7B8
FF70
7EE0
01C0
038C
071C
0E3C
1C7C
38DC
71DC
E39C
43FE
03FE
001C
001C
ENDCHAR

STARTCHAR questiondown
ENCODING 191
SWIDTH 570 0
DWIDTH 16 0
BBX 11 19 3 -1
BITMAP
0200
0700
0700
0200
0000
0000
0700
0700
0700
0E00
1E00
3C00
7800
F000
F060
F0E0
F9E0
7FC0
1F00
ENDCHAR

STARTCHAR Agrave
ENCODING 192
SWIDTH 570 0
DWIDTH 16 0
BBX 16 24 0 0
BITMAP
0F00
0700
0380
0180
0000
0000
0180
03C0
03C0
07E0
07E0
0E70
0E70
1E78
1C38
3C3C
3FFC
3FFC
7FFE
781E
781E
F00F
F00F
F00F
ENDCHAR

STARTCHAR Aacute
ENCODING 193
SWIDTH 570 0
DWIDTH 16 0
BBX 16 24 0 0
BITMAP
00F0
00E0
01C0
0180
0000
0000
0180
03C0
03C0
07E0
07E0
0E70
0E70
1E78
1C38
3C3C
3FFC
3FFC
7FFE
781E
781E
F00F
F00F
F00F
ENDCHAR

STARTCHAR Acircumflex
ENCODING 194
SWIDTH 570 0
DWIDTH 16 0
BBX 16 24 0 0
BITMAP
0180
03C0
07E0
0E70
0000
0000
0180
03C0
03C0
07E0
07E0
0E70
0E70
1E78
1C38
3C3C
3FFC
3FFC
7FFE
781E
781E
F00F
F00F
F00F
ENDCHAR

STARTCHAR Atilde
ENCODING 195
SWIDTH 570 0
DWIDTH 16 0
BBX 16 24 0 0
BITMAP
0710
0FF0
0FF0
08E0
0000
0000
0180
03C0
03C0
07E0
07E0
0E70
0E70
1E78
1C38
3C3C
3FFC
3FFC
7FFE
781E
781E
F00F
F00F
F00F
ENDCHAR

STARTCHAR Adieresis
ENCODING 196
SWIDTH 570 0
DWIDTH 16 0
BBX 16 23 0 0
BITMAP
0630
0F78
0F78
0630
0000
0180
03C0
03C0
07E0
07E0
0E70
0E70
1E78
1C38
3C3C
3FFC
3FFC
7FFE
781E
781E
F00F
F00F
F00F
ENDCHAR

STARTCHAR Aring
ENCODING 197
SWIDTH 570 0
DWIDTH 16 0
BBX 16 24 0 0
BITMAP
03C0
07E0
0660
07E0
03C0
0000
0180
03C0
03C0
07E0
07E0
0E70
0E70
1E78
1C38
3C3C
3FFC
3FFC
7FFE
781E
781E
F00F
F00F
F00F
ENDCHAR

STARTCHAR AE
ENCODING 198
SWIDTH 570 0
DWIDTH 16 0
BBX 16 18 0 0
BITMAP
01FF
03FF
03FF
07F1
07F0
0EF0
0EF0
1EF0
1CFE
3CFE
3FF0
3FF0
7FF0
78F0
78F1
F0FF
F0FF
F0FF
ENDCHAR

STARTCHAR Ccedilla
ENCODING 199
SWIDTH 570 0
DWIDTH 16 0
BBX 13 22 2 -4
BITMAP
0FC0
3FF0
7FF8
7C78
F838
F000
F000
F000
F000
F000
F000
F000
F000
F838
7C78
7FF0
3FE0
0F80
0380
09C0
0FC0
0780
ENDCHAR

STARTCHAR Egrave
ENCODING 200
SWIDTH 570 0
DWIDTH 16 0
BBX 13 24 2 0
BITMAP
1E00
0E00
0700
0300
0000
0000
FFF8
7FF8
7FF8
7818
7808
7800
7800
7FE0
7FE0
7FE0
7800
7800
7800
7808
7818
7FF8
7FF8
FFF8
ENDCHAR

STARTCHAR Eacute
ENCODING 201
SWIDTH 570 0
DWIDTH 16 0
BBX 13 24 2 0
BITMAP
01E0
01C0
0380
0300
0000
0000
FFF8
7FF8
7FF8
7818
7808
7800
7800
7FE0
7FE0
7FE0
7800
7800
7800
7808
7818
7FF8
7FF8
FFF8
ENDCHAR

STARTCHAR Ecircumflex
ENCODING 202
SWIDTH 570 0
DWIDTH 16 0
BBX 13 24 2 0
BITMAP
0300
0780
0FC0
1CE0
0000
0000
FFF8
7FF8
7FF8
7818
7808
7800
7800
7FE0
7FE0
7FE0
7800
7800
7800
7808
7818
7FF8
7FF8
FFF8
ENDCHAR

STARTCHAR Edieresis
ENCODING 203
SWIDTH 570 0
DWIDTH 16 0
BBX 13 24 2 0
BITMAP
1860
3CF0
3CF0
1860
0000
0000
FFF8
7FF8
7FF8
7818
7808
7800
7800
7FE0
7FE0
7FE0
7800
7800
7800
7808
7818
7FF8
7FF8
FFF8
ENDCHAR

STARTCHAR Igrave
ENCODING 204
SWIDTH 570 0
DWIDTH 16 0
BBX 10 24 3 0
BITMAP
7800
3800
1C00
0C00
0000
0000
FFC0
FFC0
FFC0
1E00
1E00
1E00
1E00
1E00
1E00
1E00
1E00
1E00
1E00
1E00
1E00
FFC0
FFC0
FFC0
ENDCHAR

STARTCHAR Iacute
ENCODING 205
SWIDTH 570 0
DWIDTH 16 0
BBX 10 24 3 0
BITMAP
0780
0700
0E00
0C00
0000
0000
FFC0
FFC0
FFC0
1E00
1E00
1E00
1E00
1E00
1E00
1E00
1E00
1E00
1E00
1E00
1E00
FFC0
FFC0
FFC0
ENDCHAR

STARTCHAR Icircumflex
ENCODING 206
SWIDTH 570 0
DWIDTH 16 0
BBX 10 24 3 0
BITMAP
0C00
1E00
3F00
7380
0000
0000
FFC0
FFC0
FFC0
1E00
1E00
1E00
1E00
1E00
1E00
1E00
1E00
1E00
1E00
1E00
1E00
FFC0
FFC0
FFC0
ENDCHAR

STARTCHAR Idieresis
ENCODING 207
SWIDTH 570 0
DWIDTH 16 0
BBX 10 24 3 0
BITMAP
6180
F3C0
F3C0
6180
0000
0000
FFC0
FFC0
FFC0
1E00
1E00
1E00
1E00
1E00
1E00
1E00
1E00
1E00
1E00
1E00
1E00
FFC0
FFC0
FFC0
ENDCHAR

STARTCHAR Eth
ENCODING 208
SWIDTH 570 0
DWIDTH 16 0
BBX 15 18 0 0
BITMAP
7FE0
3FF8
3FFC
3C3C
3C1E
3C1E
3C1E
3C1E
FF9E
FF9E
3C1E
3C1E
3C1E
3C1E
3C3C
3FFC
3FF8
7FE0
ENDCHAR

STARTCHAR Ntilde
ENCODING 209
SWIDTH 570 0
DWIDTH 16 0
BBX 15 24 1 0
BITMAP
0710
0FF0
0FF0
08E0
0000
0000
F87E
783C
7C3C
7C3C
7E3C
7E3C
7F3C
7F3C
7BBC
7BBC
79FC
79FC
78FC
78FC
787C
787C
783C
FC3E
ENDCHAR

STARTCHAR Ograve
ENCODING 210
SWIDTH 570 0
DWIDTH 16 0
BBX 13 24 2 0
BITMAP
1E00
0E00
0700
0300
0000
0000
0F80
3FE0
7FF0
78F0
F078
F078
F078
F078
F078
F078
F078
F078
F078
F078
78F0
7FF0
3FE0
0F80
ENDCHAR

STARTCHAR Oacute
ENCODING 211
SWIDTH 570 0
DWIDTH 16 0
BBX 13 24 2 0
BITMAP
03C0
0380
0700
0600
0000
0000
0F80
3FE0
7FF0
78F0
F078
F078
F078
F078
F078
F078
F078
F078
F078
F078
78F0
7FF0
3FE0
0F80
ENDCHAR

STARTCHAR Ocircumflex
ENCODING 212
SWIDTH 570 0
DWIDTH 16 0
BBX 13 24 2 0
BITMAP
0700
0F80
1DC0
38E0
0000
0000
0F80
3FE0
7FF0
78F0
F078
F078
F078
F078
F078
F078
F078
F078
F078
F078
78F0
7FF0
3FE0
0F80
ENDCHAR

STARTCHAR Otilde
ENCODING 213
SWIDTH 570 0
DWIDTH 16 0
BBX 13 24 2 0
BITMAP
0E20
1FE0
1FE0
11C0
0000
0000
0F80
3FE0
7FF0
78F0
F078
F078
F078
F078
F078
F078
F078
F078
F078
F078
78F0
7FF0
3FE0
0F80
ENDCHAR

STARTCHAR Odieresis
ENCODING 214
SWIDTH 570 0
DWIDTH 16 0
BBX 13 24 2 0
BITMAP
18C0
3DE0
3DE0
18C0
0000
0000
0F80
3FE0
7FF0
78F0
F078
F078
F078
F078
F078
F078
F078
F078
F078
F078
78F0
7FF0
3FE0
0F80
ENDCHAR

STARTCHAR multiply
ENCODING 215
SWIDTH 570 0
DWIDTH 16 0
BBX 12 13 2 4
BITMAP
4020
E070
F0F0
79E0
3FC0
1F80
0F00
1F80
3FC0
79E0
F0F0
E070
4020
ENDCHAR

STARTCHAR Oslash
ENCODING 216
SWIDTH 570 0
DWIDTH 16 0
BBX 14 21 1 -1
BITMAP
000C
0018
07F0
1FF0
3FF8
3C78
78FC
78FC
79BC
793C
7B3C
7B3C
7A3C
7E3C
7C3C
7C3C
3878
3FF8
3FF0
67C0
C000
ENDCHAR

STARTCHAR Ugrave
ENCODING 217
SWIDTH 570 0
DWIDTH 16 0
BBX 15 24 1 0
BITMAP
0F00
0700
0380
0180
0000
0000
F83E
783C
783C
783C
783C
783C
783C
783C
783C
783C
783C
783C
783C
783C
3C78
3FF8
1FF0
07C0
ENDCHAR

STARTCHAR Uacute
ENCODING 218
SWIDTH 570 0
DWIDTH 16 0
BBX 15 24 1 0
BITMAP
01E0
01C0
0380
0300
0000
0000
F83E
783C
783C
783C
783C
783C
783C
783C
783C
783C
783C
783C
783C
783C
3C78
3FF8
1FF0
07C0
ENDCHAR

STARTCHAR Ucircumflex
ENCODING 219
SWIDTH 570 0
DWIDTH 16 0
BBX 15 24 1 0
BITMAP
0380
07C0
0EE0
1C70
0000
0000
F83E
783C
783C
783C
783C
783C
783C
783C
783C
783C
783C
783C
783C
783C
3C78
3FF8
1FF0
07C0
ENDCHAR

STARTCHAR Udieresis
ENCODING 220
SWIDTH 570 0
DWIDTH 16 0
BBX 15 24 1 0
BITMAP
1830
3C78
3C78
1830
0000
0000
F83E
783C
783C
783C
783C
783C
783C
783C
783C
783C
783C
783C
783C
783C
3C78
3FF8
1FF0
07C0
ENDCHAR

STARTCHAR Yacute
ENCODING 221
SWIDTH 570 0
DWIDTH 16 0
BBX 16 24 0 0
BITMAP
00F0
00E0
01C0
0180
0000
0000
F00F
F81F
781E
3C3C
1C38
1E78
0FF0
07E0
07E0
03C0
03C0
03C0
03C0
03C0
03C0
03C0
0FF0
0FF0
ENDCHAR

STARTCHAR Thorn
ENCODING 222
SWIDTH 570 0
DWIDTH 16 0
BBX 14 18 2 0
BITMAP
FC00
7800
7800
7FE0
7FF8
7FF8
787C
783C
783C
783C
783C
787C
7FF8
7FF0
7FC0
7800
7800
FC00
ENDCHAR

STARTCHAR germandbls
ENCODING 223
SWIDTH 570 0
DWIDTH 16 0
BBX 13 18 2 0
BITMAP
0F80
3FE0
3FF0
78F0
7870
7870
78E0
FBC0
FBE0
78F0
7870
7878
7878
7878
78F8
7BF0
FBF0
F9C0
ENDCHAR

STARTCHAR agrave
ENCODING 224
SWIDTH 570 0
DWIDTH 16 0
BBX 14 19 2 0
BITMAP
1E00
0E00
0700
0300
0000
0000
0FC0
3FF0
7FF0
70F8
0078
1FF8
7FF8
FFF8
F078
F0F8
FFF8
7FBC
3E3C
ENDCHAR

STARTCHAR aacute
ENCODING 225
SWIDTH 570 0
DWIDTH 16 0
BBX 14 19 2 0
BITMAP
01E0
01C0
0380
0300
0000
0000
0FC0
3FF0
7FF0
70F8
0078
1FF8
7FF8
FFF8
F078
F0F8
FFF8
7FBC
3E3C
ENDCHAR

STARTCHAR acircumflex
ENCODING 226
SWIDTH 570 0
DWIDTH 16 0
BBX 14 19 2 0
BITMAP
0700
0F80
1DC0
38E0
0000
0000
0FC0
3FF0
7FF0
70F8
0078
1FF8
7FF8
FFF8
F078
F0F8
FFF8
7FBC
3E3C
ENDCHAR

STARTCHAR atilde
ENCODING 227
SWIDTH 570 0
DWIDTH 16 0
BBX 14 19 2 0
BITMAP
0E20
1FE0
1FE0
11C0
0000
0000
0FC0
3FF0
7FF0
70F8
0078
1FF8
7FF8
FFF8
F078
F0F8
FFF8
7FBC
3E3C
ENDCHAR

STARTCHAR adieresis
ENCODING 228
SWIDTH 570 0
DWIDTH 16 0
BBX 14 19 2 0
BITMAP
18C0
3DE0
3DE0
18C0
0000
0000
0FC0
3FF0
7FF0
70F8
0078
1FF8
7FF8
FFF8
F078
F0F8
FFF8
7FBC
3E3C
ENDCHAR

STARTCHAR aring
ENCODING 229
SWIDTH 570 0
DWIDTH 16 0
BBX 14 19 2 0
BITMAP
07C0
0EE0
0EE0
07C0
0000
0000
0FC0
3FF0
7FF0
70F8
0078
1FF8
7FF8
FFF8
F078
F0F8
FFF8
7FBC
3E3C
ENDCHAR

STARTCHAR ae
ENCODING 230
SWIDTH 570 0
DWIDTH 16 0
BBX 16 13 0 0
BITMAP
0F1C
3FFE
7FFF
71C7
01C7
1FFF
7FFF
FFC0
E1C0
E1E3
FFFF
7FFE
3E78
ENDCHAR

STARTCHAR ccedilla
ENCODING 231
SWIDTH 570 0
DWIDTH 16 0
BBX 13 17 2 -4
BITMAP
0FE0
3FF8
7FF8
7C38
F818
F800
F800
F800
FC00
7E38
7FF8
3FF0
0FC0
0380
09C0
0FC0
0780
ENDCHAR

STARTCHAR egrave
ENCODING 232
SWIDTH 570 0
DWIDTH 16 0
BBX 13 19 2 0
BITMAP
1E00
0E00
0700
0300
0000
0000
0FC0
3FF0
7FF8
F878
F078
FFF8
FFF0
F000
F000
7C18
7FF8
3FF0
0FC0
ENDCHAR

STARTCHAR eacute
ENCODING 233
SWIDTH 570 0
DWIDTH 16 0
BBX 13 19 2 0
BITMAP
01E0
01C0
0380
0300
0000
0000
0FC0
3FF0
7FF8
F878
F078
FFF8
FFF0
F000
F000
7C18
7FF8
3FF0
0FC0
ENDCHAR

STARTCHAR ecircumflex
ENCODING 234
SWIDTH 570 0
DWIDTH 16 0
BBX 13 19 2 0
BITMAP
0380
07C0
0EE0
1C70
0000
0000
0FC0
3FF0
7FF8
F878
F078
FFF8
FFF0
F000
F000
7C18
7FF8
3FF0
0FC0
ENDCHAR

STARTCHAR edieresis
ENCODING 235
SWIDTH 570 0
DWIDTH 16 0
BBX 13 19 2 0
BITMAP
1860
3CF0
3CF0
1860
0000
0000
0FC0
3FF0
7FF8
F878
F078
FFF8
FFF0
F000
F000
7C18
7FF8
3FF0
0FC0
ENDCHAR

STARTCHAR igrave
ENCODING 236
SWIDTH 570 0
DWIDTH 16 0
BBX 12 19 3 0
BITMAP
3C00
1C00
0E00
0600
0000
0000
0F00
FF00
FF00
0F00
0F00
0F00
0F00
0F00
0F00
0F00
0F00
FFF0
FFF0
ENDCHAR

STARTCHAR iacute
ENCODING 237
SWIDTH 570 0
DWIDTH 16 0
BBX 12 19 3 0
BITMAP
03C0
0380
0700
0600
0000
0000
0F00
FF00
FF00
0F00
0F00
0F00
0F00
0F00
0F00
0F00
0F00
FFF0
FFF0
ENDCHAR

STARTCHAR icircumflex
ENCODING 238
SWIDTH 570 0
DWIDTH 16 0
BBX 12 19 3 0
BITMAP
0600
0F00
1F80
39C0
0000
0000
0F00
FF00
FF00
0F00
0F00
0F00
0F00
0F00
0F00
0F00
0F00
FFF0
FFF0
ENDCHAR

STARTCHAR idieresis
ENCODING 239
SWIDTH 570 0
DWIDTH 16 0
BBX 12 19 3 0
BITMAP
30C0
79E0
79E0
30C0
0000
0000
0F00
FF00
FF00
0F00
0F00
0F00
0F00
0F00
0F00
0F00
0F00
FFF0
FFF0
ENDCHAR

STARTCHAR eth
ENCODING 240
SWIDTH 570 0
DWIDTH 16 0
BBX 15 20 1 0
BITMAP
F820
7CF0
3FE0
1F80
3F80
F7C0
63E0
07E0
1FF0
3FF8
7C7C
783C
F83E
F83E
F83E
783C
7C7C
3FF8
1FF0
07C0
ENDCHAR

STARTCHAR ntilde
ENCODING 241
SWIDTH 570 0
DWIDTH 16 0
BBX 15 19 2 0
BITMAP
0710
0FF0
0FF0
08E0
0000
0000
79F0
FFF8
FFFC
7C7C
783C
783C
783C
783C
783C
783C
783C
F83E
F83E
ENDCHAR

STARTCHAR ograve
ENCODING 242
SWIDTH 570 0
DWIDTH 16 0
BBX 15 19 1 0
BITMAP
0F00
0700
0380
0180
0000
0000
07C0
1FF0
3FF8
7C7C
783C
F83E
F83E
F83E
783C
7C7C
3FF8
1FF0
07C0
ENDCHAR

STARTCHAR oacute
ENCODING 243
SWIDTH 570 0
DWIDTH 16 0
BBX 15 19 1 0
BITMAP
00F0
00E0
01C0
0180
0000
0000
07C0
1FF0
3FF8
7C7C
783C
F83E
F83E
F83E
783C
7C7C
3FF8
1FF0
07C0
ENDCHAR

STARTCHAR ocircumflex
ENCODING 244
SWIDTH 570 0
DWIDTH 16 0
BBX 15 19 1 0
BITMAP
0380
07C0
0EE0
1C70
0000
0000
07C0
1FF0
3FF8
7C7C
783C
F83E
F83E
F83E
783C
7C7C
3FF8
1FF0
07C0
ENDCHAR

STARTCHAR otilde
ENCODING 245
SWIDTH 570 0
DWIDTH 16 0
BBX 15 19 1 0
BITMAP
0E20
1FE0
1FE0
11C0
0000
0000
07C0
1FF0
3FF8
7C7C
783C
F83E
F83E
F83E
783C
7C7C
3FF8
1FF0
07C0
ENDCHAR

STARTCHAR odieresis
ENCODING 246
SWIDTH 570 0
DWIDTH 16 0
BBX 15 19 1 0
BITMAP
0C60
1EF0
1EF0
0C60
0000
0000
07C0
1FF0
3FF8
7C7C
783C
F83E
F83E
F83E
783C
7C7C
3FF8
1FF0
07C0
ENDCHAR

STARTCHAR divide
ENCODING 247
SWIDTH 570 0
DWIDTH 16 0
BBX 13 15 2 3
BITMAP
0700
0700
0700
0700
0000
0000
FFF8
FFF8
FFF8
0000
0000
0700
0700
0700
0700
ENDCHAR

STARTCHAR oslash
ENCODING 248
SWIDTH 570 0
DWIDTH 16 0
BBX 15 14 1 0
BITMAP
0006
07EC
1FF8
3FF8
7C7C
78FC
F9BE
FB3E
FE3E
7C3C
787C
3FF8
7FF0
CFC0
ENDCHAR

STARTCHAR ugrave
ENCODING 249
SWIDTH 570 0
DWIDTH 16 0
BBX 15 18 1 0
BITMAP
0F00
0700
0380
0180
0000
783C
F87C
F87C
783C
783C
783C
783C
783C
783C
7C7C
3FFC
3FBE
1F3E
ENDCHAR

STARTCHAR uacute
ENCODING 250
SWIDTH 570 0
DWIDTH 16 0
BBX 15 18 1 0
BITMAP
01E0
01C0
0380
0300
0000
783C
F87C
F87C
783C
783C
783C
783C
783C
783C
7C7C
3FFC
3FBE
1F3E
ENDCHAR

STARTCHAR ucircumflex
ENCODING 251
SWIDTH 570 0
DWIDTH 16 0
BBX 15 19 1 0
BITMAP
0380
07C0
0EE0
1C70
0000
0000
783C
F87C
F87C
783C
783C
783C
783C
783C
783C
7C7C
3FFC
3FBE
1F3E
ENDCHAR

STARTCHAR udieresis
ENCODING 252
SWIDTH 570 0
DWIDTH 16 0
BBX 15 19 1 0
BITMAP
1860
3CF0
3CF0
1860
0000
0000
783C
F87C
F87C
783C
783C
783C
783C
783C
783C
7C7C
3FFC
3FBE
1F3E
ENDCHAR

STARTCHAR yacute
ENCODING 253
SWIDTH 570 0
DWIDTH 16 0
BBX 15 24 1 -5
BITMAP
00F0
00E0
01C0
0180
0000
0000
F83E
783E
7C3C
3C3C
3C38
1E38
1E78
1E70
0F70
0FE0
07E0
07C0
03C0
0380
C380
EF00
FE00
7C00
ENDCHAR

STARTCHAR thorn
ENCODING 254
SWIDTH 570 0
DWIDTH 16 0
BBX 15 23 1 -5
BITMAP
F800
F800
7800
7800
7800
7BC0
7FF0
7FF8
7C7C
783C
783E
783E
783E
783C
7C7C
7FF8
7FF0
7BC0
7800
7800
7800
FC00
FC00
ENDCHAR

STARTCHAR ydieresis
ENCODING 255
SWIDTH 570 0
DWIDTH 16 0
BBX 15 24 1 -5
BITMAP
0C30
1E78
1E78
0C30
0000
0000
F83E
783E
7C3C
3C3C
3C38
1E38
1E78
1E70
0F70
0FE0
07E0
07C0
03C0
0380
C380
EF00
FE00
7C00
ENDCHAR
ENDFONT
